<?xml version="1.0" encoding="UTF-8" standalone="no"?>
<svg
   viewBox="0 0 640 640"
   version="1.1"
   id="svg1"
   sodipodi:docname="seedling-solid-full.svg"
   xml:space="preserve"
   inkscape:version="1.3.2 (091e20e, 2023-11-25, custom)"
   xmlns:inkscape="http://www.inkscape.org/namespaces/inkscape"
   xmlns:sodipodi="http://sodipodi.sourceforge.net/DTD/sodipodi-0.dtd"
   xmlns="http://www.w3.org/2000/svg"
   xmlns:svg="http://www.w3.org/2000/svg"><defs
     id="defs1" /><sodipodi:namedview
     id="namedview1"
     pagecolor="#ffffff"
     bordercolor="#000000"
     borderopacity="0.25"
     inkscape:showpageshadow="2"
     inkscape:pageopacity="0.0"
     inkscape:pagecheckerboard="0"
     inkscape:deskcolor="#d1d1d1"
     inkscape:zoom="0.82974561"
     inkscape:cx="338.05542"
     inkscape:cy="373.00589"
     inkscape:window-width="1920"
     inkscape:window-height="1001"
     inkscape:window-x="-9"
     inkscape:window-y="-9"
     inkscape:window-maximized="1"
     inkscape:current-layer="svg1" /><circle
     style="fill:#ffffff;fill-rule:evenodd;stroke-width:10.8576;stroke-linejoin:round;stroke-miterlimit:6.5;paint-order:markers stroke fill"
     id="path2"
     cx="320"
     cy="320"
     r="320" /><!--!Font Awesome Free 7.0.0 by @fontawesome - https://fontawesome.com License - https://fontawesome.com/license/free Copyright 2025 Fonticons, Inc.--><path
     d="M 576,140 C 576,248.1 499.4,338.3 397.6,359.4 389.7,301.3 363.6,249 325.1,208.5 365.2,148 433.9,108 512,108 h 32 c 17.7,0 32,14.3 32,32 z M 64,204 c 0,-17.7 14.3,-32 32,-32 h 32 c 123.7,0 224,100.3 224,224 v 192 c 0,17.7 -14.3,32 -32,32 -17.7,0 -32,-14.3 -32,-32 V 428 C 164.3,428 64,327.7 64,204 Z"
     id="path1"
     style="fill:#3a6a3e;fill-opacity:1" /></svg>
